<?xml version="1.0" encoding="iso-8859-1"?>
<!-- Uploaded to: SVG Repo, www.svgrepo.com, Generator: SVG Repo Mixer Tools -->
<svg xmlns="http://www.w3.org/2000/svg" xmlns:xlink="http://www.w3.org/1999/xlink" version="1.1" id="Layer_1"  viewBox="0 0 502 502" xml:space="preserve" width="300" height="300">
<g>
	<g>
		<g>
			<rect x="235.789" y="100" style="fill:#CCCCCC;" width="30.421" height="27"/>
			<path style="fill:#50A5DC;" d="M197.003,389h107.995V214.367c0-28.234-9.693-51.427-27.457-73.372L266.211,127h-30.421     l-11.33,13.995c-17.765,21.945-27.457,45.138-27.457,73.372V389z"/>
		</g>
		<path style="fill:#C1272D;" d="M251,10C117.899,10,10,117.899,10,251s107.899,241,241,241s241-107.899,241-241S384.101,10,251,10z     M72,251c0-98.859,80.141-179,179-179c36.904,0,71.196,11.172,99.688,30.312L102.312,350.688C83.172,322.196,72,287.904,72,251z     M251,430c-36.904,0-71.196-11.172-99.688-30.312l248.376-248.376C418.828,179.804,430,214.096,430,251    C430,349.859,349.859,430,251,430z"/>
	</g>
	<g>
		<path d="M360.641,101.344c-0.29-2.976-1.895-5.666-4.377-7.333C325.091,73.069,288.691,62,251,62C146.785,62,62,146.785,62,251    c0,37.691,11.069,74.091,32.011,105.264c1.667,2.482,4.357,4.087,7.333,4.377c0.324,0.031,0.646,0.047,0.968,0.047    c2.639,0,5.187-1.045,7.071-2.929l248.376-248.376C359.873,107.269,360.93,104.32,360.641,101.344z M256.21,117H245.79v-7h10.421    V117z M232.232,147.288L240.561,137h20.879l8.328,10.288c3.456,4.269,6.475,8.445,9.153,12.649l-71.918,71.918v-17.488    C207.002,189.865,215.02,168.55,232.232,147.288z M293.352,145.506c-2.465-3.618-5.146-7.229-8.039-10.802l-9.102-11.244V100    c0-5.523-4.477-10-10-10H235.79c-5.523,0-10,4.477-10,10v23.46l-9.102,11.244c-20.252,25.018-29.685,50.331-29.685,79.664v37.488    l-82.849,82.849C89.625,309.284,82,280.59,82,251c0-93.187,75.813-169,169-169c29.59,0,58.284,7.625,83.704,22.154    L293.352,145.506z"/>
		<path d="M407.989,145.736c-1.667-2.482-4.357-4.087-7.333-4.377c-2.98-0.29-5.925,0.768-8.039,2.882L144.241,392.617    c-2.114,2.114-3.171,5.063-2.882,8.039c0.29,2.976,1.895,5.666,4.377,7.333C176.909,428.931,213.309,440,251,440    c104.215,0,189-84.785,189-189C440,213.309,428.931,176.909,407.989,145.736z M207.002,358.14l87.995-87.995V379h-87.995V358.14z     M251,420c-29.59,0-58.284-7.625-83.704-22.154l19.707-19.707V389c0,5.523,4.477,10,10,10h107.995c5.523,0,10-4.477,10-10V250.145    l82.849-82.849C412.375,192.716,420,221.41,420,251C420,344.187,344.187,420,251,420z"/>
		<path d="M428.484,73.516C381.076,26.108,318.044,0,251,0S120.924,26.108,73.516,73.516S0,183.956,0,251    s26.108,130.076,73.516,177.484S183.956,502,251,502s130.076-26.108,177.484-73.516S502,318.044,502,251    S475.892,120.924,428.484,73.516z M251,482C123.626,482,20,378.374,20,251S123.626,20,251,20s231,103.626,231,231    S378.374,482,251,482z"/>
		<path d="M337.929,140.929l-11,11c-3.905,3.905-3.905,10.237,0,14.143c1.953,1.953,4.512,2.929,7.071,2.929    s5.119-0.976,7.071-2.929l11-11c3.905-3.905,3.905-10.237,0-14.143C348.166,137.023,341.834,137.023,337.929,140.929z"/>
		<path d="M319.071,173.929c-3.905-3.904-10.237-3.904-14.143,0l-190.5,190.5c-3.905,3.905-3.905,10.237,0,14.143    c1.953,1.952,4.512,2.929,7.071,2.929s5.119-0.977,7.071-2.929l190.5-190.5C322.976,184.166,322.976,177.834,319.071,173.929z"/>
	</g>
</g>















</svg>